<svg width="100%" height="100%" viewBox="0 0 26 26" fill="none" xmlns="http://www.w3.org/2000/svg">
<path d="M24.2636 11.5242C24.2636 11.6689 23.9973 11.8078 23.8584 11.8251C23.3028 11.8888 21.9889 11.8772 21.4159 11.8251C21.2075 11.8078 21.0686 11.7673 20.9875 11.5531L20.1714 9.27261H5.82858L5.01247 11.5531C4.93143 11.7673 4.78673 11.8078 4.58415 11.8251C4.01113 11.8772 2.70303 11.8888 2.14159 11.8251C2.00267 11.8078 1.73642 11.6689 1.73642 11.5242V9.27261H0.30098C0.30098 9.27261 0.0752449 9.12212 0.0520926 9.08739L0 2.29799C0.0115761 1.97386 0.283615 1.87546 0.567231 1.88704L25.6759 1.91019C25.9016 1.96228 26.0058 2.11277 26 2.34429L25.9479 9.0816C25.9248 9.11633 25.7222 9.26682 25.699 9.26682H24.2636V11.5242ZM25.1318 2.81313H0.86821V8.34652H25.1318V2.81313Z" fill="currentColor"/>
<path d="M2.72618 14.3892C2.83615 14.2792 3.10819 14.1519 3.27605 14.1519L19.4016 14.2271C24.8713 15.3037 24.8134 23.0366 19.3495 24.0726L3.14292 24.1189C2.79564 24.0263 2.52939 23.7253 2.49466 23.3549V14.9969C2.49466 14.8059 2.59884 14.5281 2.73197 14.395L2.72618 14.3892ZM3.41496 23.216H18.9849C19.2858 23.216 20.0267 22.9497 20.3161 22.8108C23.2275 21.3928 23.378 17.2311 20.565 15.6105C20.2582 15.431 19.4248 15.078 19.0948 15.078H3.41496V23.216Z" fill="currentColor"/>
<path d="M1.9911 3.20665L12.3517 3.21822C12.5254 3.29926 12.6701 3.45553 12.6759 3.65233C12.589 4.87361 12.7858 6.25117 12.6759 7.45509C12.6585 7.64609 12.6354 7.8371 12.4443 7.92971L1.88112 7.95865L1.62066 7.61715C1.71327 6.33799 1.51069 4.91413 1.62066 3.65233C1.64381 3.38608 1.71327 3.25874 1.98531 3.20665H1.9911Z" fill="currentColor"/>
<path d="M19.419 6.85892C20.119 6.85892 20.6866 6.2914 20.6866 5.59133C20.6866 4.89126 20.119 4.32374 19.419 4.32374C18.7189 4.32374 18.1514 4.89126 18.1514 5.59133C18.1514 6.2914 18.7189 6.85892 19.419 6.85892Z" fill="currentColor"/>
<path d="M23.1291 6.86471C23.8292 6.86471 24.3967 6.29719 24.3967 5.59712C24.3967 4.89705 23.8292 4.32953 23.1291 4.32953C22.4291 4.32953 21.8615 4.89705 21.8615 5.59712C21.8615 6.29719 22.4291 6.86471 23.1291 6.86471Z" fill="currentColor"/>
<path d="M15.7088 6.86471C16.4057 6.86471 16.9706 6.29719 16.9706 5.59712C16.9706 4.89705 16.4057 4.32953 15.7088 4.32953C15.0119 4.32953 14.447 4.89705 14.447 5.59712C14.447 6.29719 15.0119 6.86471 15.7088 6.86471Z" fill="currentColor"/>
<path d="M18.5218 22.0642C20.1361 22.0642 21.4448 20.7529 21.4448 19.1354C21.4448 17.5179 20.1361 16.2066 18.5218 16.2066C16.9075 16.2066 15.5988 17.5179 15.5988 19.1354C15.5988 20.7529 16.9075 22.0642 18.5218 22.0642Z" fill="currentColor"/>
<path d="M12.3865 15.7899C12.589 15.7436 12.8321 15.7841 12.9363 15.9751C13.0232 16.1314 13.0289 17.1154 12.9826 17.3122C12.8842 17.7405 12.1607 17.7694 12.0797 17.2138C12.0276 16.8781 11.9755 15.8825 12.3865 15.7899Z" fill="currentColor"/>
<path d="M7.565 19.94C7.40294 20.1136 7.02671 20.1194 6.87622 19.9342C6.72574 19.7489 6.60997 18.2846 7.07302 18.2209C7.24666 18.1572 7.50712 18.2325 7.60552 18.3887C7.74444 18.6029 7.74443 19.7432 7.565 19.94Z" fill="currentColor"/>
<path d="M12.8727 22.3825C12.6238 22.6546 12.1665 22.4867 12.0913 22.1452C12.0334 21.879 12.0334 20.9297 12.236 20.7445C12.4791 20.5072 12.9132 20.6577 12.9884 20.976C13.0405 21.2191 13.0405 22.2089 12.8727 22.3883V22.3825Z" fill="currentColor"/>
<path d="M7.07881 15.7899C7.39715 15.7204 7.63446 15.8594 7.68656 16.1893C7.7155 16.3919 7.7155 17.0633 7.67498 17.2601C7.58816 17.6884 7.01514 17.7636 6.82992 17.4279C6.7431 17.2717 6.73731 16.2877 6.78362 16.0909C6.81256 15.952 6.94568 15.8246 7.07881 15.7899Z" fill="currentColor"/>
<path d="M12.537 18.192C13.1273 18.192 13.0405 19.1354 13 19.5522C12.9305 20.2699 12.1434 20.2699 12.0739 19.5522C12.0334 19.147 11.9581 18.192 12.537 18.192Z" fill="currentColor"/>
<path d="M6.89938 22.3825C6.73731 22.2031 6.73152 21.2191 6.78362 20.9702C6.85307 20.6461 7.29297 20.5014 7.53607 20.7387C7.73865 20.9239 7.74444 21.879 7.68077 22.1394C7.60552 22.4693 7.13669 22.6372 6.89938 22.3767V22.3825Z" fill="currentColor"/>
<path d="M8.97729 20.6229C9.56189 20.5709 9.51558 21.5606 9.47507 21.9426C9.39982 22.6951 8.61264 22.7124 8.55476 22.0526C8.5374 21.8558 8.52582 21.0744 8.56634 20.9239C8.60107 20.8024 8.84417 20.6345 8.97729 20.6229Z" fill="currentColor"/>
<path d="M10.7079 20.6229C10.8931 20.5998 11.0784 20.7445 11.1825 20.8834C11.1652 21.3117 11.4488 22.4867 10.8063 22.5156C10.4185 22.533 10.3201 22.2147 10.2912 21.8905C10.2565 21.5143 10.2159 20.6924 10.7137 20.6229H10.7079Z" fill="currentColor"/>
<path d="M10.598 18.2325C10.8353 18.1746 11.1536 18.2498 11.2057 18.5219C11.2404 18.6897 11.2346 19.5927 11.1941 19.7547C11.1131 20.1252 10.5516 20.1946 10.3722 19.8416C10.2217 19.5464 10.1754 18.3309 10.598 18.2325Z" fill="currentColor"/>
<path d="M8.81523 18.2325C9.60819 17.9431 9.57925 19.3496 9.42298 19.7663C9.25512 20.2236 8.63001 20.1483 8.56055 19.7084C8.53161 19.5058 8.53161 18.545 8.60686 18.4061C8.63001 18.3656 8.76314 18.244 8.80944 18.2325H8.81523Z" fill="currentColor"/>
<path d="M8.81523 15.7899C9.70659 15.5237 9.60241 17.3006 9.2667 17.5437C8.99466 17.7463 8.61843 17.6074 8.56055 17.2659C8.51425 16.9649 8.47373 15.8883 8.80944 15.7899H8.81523Z" fill="currentColor"/>
<path d="M10.598 15.7899C10.8063 15.7262 11.0436 15.7725 11.1478 15.9751C11.2346 16.1488 11.2462 17.1038 11.1999 17.3122C11.1189 17.6826 10.5574 17.7521 10.378 17.399C10.2275 17.1038 10.187 15.9115 10.6037 15.7899H10.598Z" fill="currentColor"/>
<path d="M5.0935 22.5156C5.34604 22.5156 5.55076 22.3109 5.55076 22.0584C5.55076 21.8058 5.34604 21.6011 5.0935 21.6011C4.84096 21.6011 4.63624 21.8058 4.63624 22.0584C4.63624 22.3109 4.84096 22.5156 5.0935 22.5156Z" fill="currentColor"/>
</svg>
