<svg width="100%" height="100%" viewBox="0 0 26 26" fill="none" xmlns="http://www.w3.org/2000/svg">
<path d="M22.7529 4H3.25289C2.3909 4.00076 1.5644 4.33955 0.954613 4.9421C0.344827 5.54465 0.00152936 6.36177 0 7.21429V18.7857C0.000765737 19.6385 0.343818 20.456 0.95377 21.0587C1.56372 21.6614 2.39067 22 3.25289 22H13.6571C14.0122 22 14.3 21.7122 14.3 21.3571V21.3571C14.3 21.0021 14.0122 20.7143 13.6571 20.7143H3.25289C2.73545 20.7143 2.23916 20.5112 1.87301 20.1496C1.50685 19.788 1.30077 19.2975 1.3 18.7857V7.21429C1.30077 6.70253 1.50685 6.212 1.87301 5.85041C2.23916 5.48881 2.73545 5.28571 3.25289 5.28571H22.7529C23.2696 5.28647 23.7648 5.48999 24.1299 5.85159C24.495 6.21318 24.7 6.70329 24.7 7.21429V9.77857C24.7 10.1376 24.991 10.4286 25.35 10.4286V10.4286C25.709 10.4286 26 10.1376 26 9.77857V7.21429C25.9992 6.36253 25.657 5.54584 25.0483 4.94329C24.4396 4.34074 23.6141 4.00151 22.7529 4Z" fill="currentColor"/>
<path d="M24 20.8C24 20.3582 24.3582 20 24.8 20C25.2418 20 25.6 20.3582 25.6 20.8C25.6 21.2418 25.2418 21.6 24.8 21.6C24.3582 21.6 24 21.2418 24 20.8Z" fill="currentColor"/>
<path d="M9.9502 11.5166C9.95043 10.545 10.9343 9.91322 11.7988 10.2617L11.9697 10.3447L15.6152 12.4277C16.5222 12.946 16.5222 14.2542 15.6152 14.7725L11.9697 16.8555C11.0698 17.3696 9.9502 16.7191 9.9502 15.6826V11.5166ZM11 15.6826C11 15.8842 11.1905 16.0203 11.3721 15.9746L11.4492 15.9434L14.6514 14.1123L15.0938 13.8604C15.2701 13.7596 15.2923 13.525 15.1602 13.3906L15.0938 13.3399L11.4492 11.2568C11.2493 11.1426 11.0003 11.2865 11 11.5166V15.6826Z" fill="currentColor"/>
<path d="M25.4259 12.9727C25.7775 12.9863 26.0509 13.2858 26.0509 13.6436C26.0508 13.9787 25.8128 14.2537 25.5011 14.3379L25.3624 14.3613C23.6546 14.5008 22.038 15.1973 20.7696 16.3447L20.5206 16.5811C19.303 17.7853 18.5325 19.3487 18.3146 21.0195L18.2775 21.3555C18.245 21.736 17.9382 22.0498 17.5509 22.0498C17.1654 22.0497 16.8462 21.736 16.8751 21.3467L16.9151 20.9424C17.1571 18.9329 18.0741 17.0496 19.5353 15.6045L19.8341 15.3223C21.3563 13.9468 23.3017 13.1204 25.3536 12.9736L25.4259 12.9727ZM25.4239 16.8418C25.7766 16.8391 26.0506 17.1429 26.0509 17.5C26.0509 17.8363 25.8114 18.1085 25.504 18.2119L25.3692 18.2451C24.681 18.3591 24.0345 18.6565 23.5011 19.1074L23.2794 19.3096C22.7826 19.8009 22.4353 20.4126 22.2667 21.0752L22.2062 21.3623C22.1417 21.7345 21.8392 22.0496 21.4513 22.0498C21.0664 22.0498 20.7419 21.7353 20.7921 21.3447L20.8243 21.1328C21.0051 20.0773 21.5128 19.0951 22.2882 18.3281L22.4474 18.1777C23.2547 17.4435 24.2714 16.9796 25.3526 16.8467L25.4239 16.8418Z" fill="currentColor"/>
</svg>
