<svg width="100%" height="100%" viewBox="0 0 26 26" fill="none" xmlns="http://www.w3.org/2000/svg">
<path d="M23.2458 4.74623H20.5352C20.1015 4.74623 19.6462 4.89802 19.2992 5.13655L17.868 6.17741C17.6946 6.30752 17.4777 6.37257 17.2609 6.37257H13.5311V3.25H12.4903V6.37257H8.78223C8.56538 6.37257 8.34854 6.30752 8.15337 6.17741L6.7222 5.13655C6.37525 4.87634 5.91987 4.74623 5.48618 4.74623H2.77562C1.23602 4.74623 0 5.98225 0 7.50016V19.2098C0 20.7277 1.2577 21.9637 2.77562 21.9637H4.46701C5.61629 21.9637 6.63546 21.2698 7.04747 20.2073L8.63043 16.3041H17.391L18.9523 20.229C19.3643 21.2915 20.3834 21.9854 21.5327 21.9854H23.2241C24.7637 21.9854 25.9997 20.7494 25.9997 19.2315V7.52185C26.0214 5.98225 24.7637 4.74623 23.2458 4.74623ZM24.9806 19.2098C24.9806 20.1639 24.1999 20.9229 23.2458 20.9229H21.5544C20.8388 20.9229 20.21 20.4892 19.9497 19.8386L18.2584 15.5885C18.1716 15.3933 17.9765 15.2632 17.7596 15.2632H8.2618C8.04495 15.2632 7.84979 15.3933 7.76305 15.5885L6.07166 19.8386C5.81145 20.4892 5.1826 20.9229 4.46701 20.9229H2.77562C1.8215 20.9229 1.04086 20.1639 1.04086 19.2098V7.50016C1.04086 6.54605 1.8215 5.78709 2.77562 5.78709H5.48618C5.70303 5.78709 5.91987 5.85214 6.09335 5.98225L7.52452 7.0231C7.87148 7.28332 8.32685 7.41343 8.76054 7.41343H12.4686H13.5094H17.2175C17.6512 7.41343 18.1066 7.26163 18.4535 7.0231L19.8847 5.98225C20.0582 5.85214 20.275 5.78709 20.4919 5.78709H23.2024C24.1565 5.78709 24.9372 6.54605 24.9372 7.50016V19.2098H24.9806Z" fill="currentColor"/>
<path d="M20.7924 8.23746C19.3178 8.23746 18.1035 9.40842 18.1035 10.8613C18.1035 12.3141 19.3178 13.4851 20.7924 13.4851C22.2669 13.4851 23.4813 12.3141 23.4813 10.8613C23.4813 9.40842 22.2669 8.23746 20.7924 8.23746ZM20.7924 12.4443C19.9033 12.4443 19.1661 11.7287 19.1661 10.8613C19.1661 9.9939 19.9033 9.27831 20.7924 9.27831C21.6815 9.27831 22.4187 9.9939 22.4187 10.8613C22.4187 11.7287 21.6815 12.4443 20.7924 12.4443Z" fill="currentColor"/>
<path d="M5.74744 8.23746H4.70658V10.3409H2.55981V11.3817H4.70658V13.4851H5.74744V11.3817H7.91589V10.3409H5.74744V8.23746Z" fill="currentColor"/>
</svg>
