<svg width="100%" height="100%" viewBox="0 0 26 26" fill="none" xmlns="http://www.w3.org/2000/svg">
<path fill-rule="evenodd" clip-rule="evenodd" d="M5.67871 9.08398C7.46336 9.08403 8.92379 10.5445 8.92383 12.3291C8.92383 14.1138 7.46338 15.5742 5.67871 15.5742C3.894 15.5742 2.43359 14.1138 2.43359 12.3291C2.43363 10.5444 3.89402 9.08398 5.67871 9.08398ZM5.67871 9.89551C4.3402 9.89551 3.24516 10.9906 3.24512 12.3291C3.24512 13.6676 4.34018 14.7627 5.67871 14.7627C7.01721 14.7626 8.1123 13.6676 8.1123 12.3291C8.11227 10.9906 7.01718 9.89555 5.67871 9.89551Z" fill="currentColor"/>
<path d="M20.2812 9.49023C20.5244 9.49043 20.6865 9.65228 20.6865 9.89551V11.9238H22.7148C22.958 11.924 23.1201 12.0859 23.1201 12.3291C23.1201 12.5724 22.958 12.7342 22.7148 12.7344H20.6865V14.7627C20.6865 15.0059 20.5244 15.1688 20.2812 15.1689C20.0379 15.1689 19.875 15.0061 19.875 14.7627V12.7344H17.8467C17.6036 12.7342 17.4414 12.5723 17.4414 12.3291C17.4414 12.0859 17.6036 11.924 17.8467 11.9238H19.875V9.89551C19.875 9.65214 20.0379 9.49023 20.2812 9.49023Z" fill="currentColor"/>
<path fill-rule="evenodd" clip-rule="evenodd" d="M12.9795 3C13.2227 3 13.3856 3.16209 13.3857 3.40527V6.65039H22.0254C24.2155 6.65062 26 8.43579 26 10.626V20.4824C25.9592 21.7802 24.8638 22.875 23.5254 22.875C22.8766 22.8749 22.3084 22.6316 21.8623 22.1855L14.0342 14.6816C13.4663 14.1139 12.5337 14.1139 11.9658 14.6816L4.09668 22.1855C3.6505 22.6317 3.04202 22.875 2.43359 22.875C1.09511 22.8749 0 21.7799 0 20.4414V10.626C0 8.43579 1.78448 6.65062 3.97461 6.65039H12.5742V3.40527C12.5744 3.16217 12.7364 3.0001 12.9795 3ZM3.97461 7.46191C2.23066 7.46215 0.811523 8.88197 0.811523 10.626V20.4824C0.811721 21.3746 1.54141 22.1044 2.43359 22.1045C2.83921 22.1045 3.24484 21.9421 3.56934 21.6582L11.3975 14.1543C11.8436 13.6676 12.4117 13.4649 12.9795 13.4648C13.5474 13.4648 14.1153 13.6681 14.5615 14.1143L22.3896 21.6182C22.6735 21.902 23.0794 22.0634 23.5254 22.0635C24.4177 22.0635 25.1484 21.3338 25.1484 20.4414V10.626C25.1484 8.88183 23.7285 7.46191 21.9844 7.46191H3.97461Z" fill="currentColor"/>
</svg>
