<svg width="100%" height="100%" viewBox="0 0 26 26" fill="none" xmlns="http://www.w3.org/2000/svg">
<path fill-rule="evenodd" clip-rule="evenodd" d="M10 11.5176C10 10.5818 10.9477 9.97298 11.7803 10.3086L11.9453 10.3887L15.5898 12.4717L15.7441 12.5732C16.4126 13.0879 16.4126 14.1123 15.7441 14.627L15.5898 14.7285L11.9453 16.8125C11.0788 17.3075 10.0004 16.6814 10 15.6836V11.5176ZM11.4492 11.2568C11.2492 11.1426 11 11.2872 11 11.5176V15.6836C11.0003 15.8848 11.1906 16.0203 11.3721 15.9746L11.4492 15.9434L14.6514 14.1123L15.0938 13.8604C15.2701 13.7596 15.2923 13.525 15.1602 13.3906L15.0938 13.3398L11.4492 11.2568Z" fill="currentColor"/>
<path fill-rule="evenodd" clip-rule="evenodd" d="M23.0645 2.9502C24.7281 2.9502 26.0497 4.29078 26.0498 5.97559V20.9814C26.0498 22.6654 24.7291 24.0498 23.0645 24.0498H2.93555C1.27185 24.0498 -0.0497398 22.7092 -0.0498047 21.0244V5.97559C-0.0497406 4.29078 1.27185 2.9502 2.93555 2.9502H23.0645ZM0.888672 20.9814C0.888672 22.1448 1.78961 23.0576 2.93555 23.0576H6.70215V19.9268H0.888672V20.9814ZM7.64062 23.0576H12.5312V19.9268H7.64062V23.0576ZM13.4697 23.0576H18.3604V19.9268H13.4697V23.0576ZM19.2988 23.0576H23.0645C24.2104 23.0576 25.1113 22.1448 25.1113 20.9814V19.9268H19.2988V23.0576ZM0.888672 18.9766H25.1113V8.02344H0.888672V18.9766ZM2.93555 3.90039C1.78965 3.90039 0.888735 4.81233 0.888672 5.97559V7.07324H6.70215V3.90039H2.93555ZM7.64062 7.07324H12.5312V3.90039H7.64062V7.07324ZM13.4697 7.07324H18.3604V3.90039H13.4697V7.07324ZM19.2988 7.07324H25.1113V5.97559C25.1113 4.81233 24.2104 3.90039 23.0645 3.90039H19.2988V7.07324Z" fill="currentColor"/>
</svg>
