<svg width="100%" height="100%" viewBox="0 0 26 26" fill="none" xmlns="http://www.w3.org/2000/svg">
<path d="M6 2C3.79265 2 2 3.79265 2 6V20C2 22.2073 3.79265 24 6 24H20C22.2074 24 24 22.2073 24 20V6C24 3.79265 22.2074 2 20 2H6ZM6 3H20C21.6706 3 23 4.32935 23 6V20C23 21.6707 21.6706 23 20 23H6C4.32935 23 3 21.6707 3 20V6C3 4.32935 4.32935 3 6 3ZM8.5 5.5C6.84907 5.5 5.5 6.84907 5.5 8.5C5.5 10.1509 6.84907 11.5 8.5 11.5C10.1509 11.5 11.5 10.1509 11.5 8.5C11.5 6.84907 10.1509 5.5 8.5 5.5ZM17.5 5.5C15.8491 5.5 14.5 6.84907 14.5 8.5C14.5 10.1509 15.8491 11.5 17.5 11.5C19.1509 11.5 20.5 10.1509 20.5 8.5C20.5 6.84907 19.1509 5.5 17.5 5.5ZM8.5 6.5C9.61049 6.5 10.5 7.38951 10.5 8.5C10.5 9.61049 9.61049 10.5 8.5 10.5C7.38951 10.5 6.5 9.61049 6.5 8.5C6.5 7.38951 7.38951 6.5 8.5 6.5ZM17.5 6.5C18.6105 6.5 19.5 7.38951 19.5 8.5C19.5 9.61049 18.6105 10.5 17.5 10.5C16.3895 10.5 15.5 9.61049 15.5 8.5C15.5 7.38951 16.3895 6.5 17.5 6.5ZM8.5 14.5C6.84907 14.5 5.5 15.8491 5.5 17.5C5.5 19.1509 6.84907 20.5 8.5 20.5C10.1509 20.5 11.5 19.1509 11.5 17.5C11.5 15.8491 10.1509 14.5 8.5 14.5ZM17.5 14.5C15.8491 14.5 14.5 15.8491 14.5 17.5C14.5 19.1509 15.8491 20.5 17.5 20.5C19.1509 20.5 20.5 19.1509 20.5 17.5C20.5 15.8491 19.1509 14.5 17.5 14.5ZM8.5 15.5C9.61049 15.5 10.5 16.3895 10.5 17.5C10.5 18.6105 9.61049 19.5 8.5 19.5C7.38951 19.5 6.5 18.6105 6.5 17.5C6.5 16.3895 7.38951 15.5 8.5 15.5ZM17.5 15.5C18.6105 15.5 19.5 16.3895 19.5 17.5C19.5 18.6105 18.6105 19.5 17.5 19.5C16.3895 19.5 15.5 18.6105 15.5 17.5C15.5 16.3895 16.3895 15.5 17.5 15.5Z" fill="currentColor"/>
</svg>
