<svg width="100%" height="100%" viewBox="0 0 26 26" fill="none" xmlns="http://www.w3.org/2000/svg">
<path d="M25.6855 4.61621C25.8269 4.73567 25.989 4.83556 25.9912 5.0459L25.9922 11.7432C26.0486 11.8921 25.7727 12.2221 25.6602 12.2227H14.7715V14.0225L18.707 17.9512C18.7948 18.0319 18.8203 18.1143 18.834 18.2295C18.9326 19.0716 18.7605 20.1028 18.8301 20.9658C18.768 21.2217 18.6053 21.3282 18.3525 21.3516C17.5758 21.4227 8.51744 21.3516 7.6377 21.3516C7.3839 21.3516 7.22221 21.2217 7.16016 20.9658C7.22975 20.1028 7.05709 19.0716 7.15625 18.2295C7.16999 18.1143 7.19586 18.0319 7.2832 17.9512L11.2188 14.0225V12.2227H0.330078C0.246662 12.2226 0.0610309 11.9882 0 11.918V4.61621H25.6855ZM8.17285 20.3359H17.8174V18.8145H8.17285V20.3359ZM14.0596 14.7832C13.3473 14.7527 12.6025 14.7122 11.9014 14.8057L8.93457 17.7998H17.0566L14.0596 14.7832ZM12.2334 13.7441H13.7568V12.2227H12.2334V13.7441ZM1.01562 11.209H24.9746V5.63086H1.01562V11.209ZM4.75879 6.91016C7.17275 6.5336 7.20641 10.2549 4.80176 9.93652C3.16963 9.71986 3.14548 7.16243 4.75879 6.91016ZM10.8506 6.91016C13.2645 6.53378 13.2977 10.2554 10.8926 9.93652C9.26075 9.71958 9.23738 7.16241 10.8506 6.91016ZM14.9111 6.91016C17.3251 6.53359 17.3588 10.2549 14.9541 9.93652C13.322 9.71986 13.2978 7.16243 14.9111 6.91016ZM7.95508 7.92285C8.89658 7.70825 8.83544 9.1881 7.91602 8.90332C7.49086 8.77105 7.50955 8.02457 7.95508 7.92285ZM5.01367 7.92188C4.26652 8.01342 4.59923 9.20401 5.29297 8.86426C5.81196 8.60993 5.54136 7.85762 5.01367 7.92188ZM11.1045 7.92188C10.3581 8.01385 10.6905 9.20313 11.3838 8.86426C11.9031 8.60995 11.6324 7.85728 11.1045 7.92188ZM15.166 7.92188C14.4189 8.01342 14.7516 9.20401 15.4453 8.86426C15.9643 8.60994 15.6937 7.85761 15.166 7.92188ZM22.0537 7.91504C22.5664 7.99672 22.5837 8.81976 22.0537 8.92383H18.1504C17.652 8.845 17.6208 8.06633 18.1074 7.92285L22.0537 7.91504Z" fill="currentColor"/>
</svg>
