<svg width="100%" height="100%" viewBox="0 0 26 26" fill="none" xmlns="http://www.w3.org/2000/svg">
<path d="M14.1953 4.00586C15.4299 4.01805 16.7687 4.04791 18.0859 4.08496C21.7919 4.19025 23.6458 4.24167 24.8223 5.45312C26.0001 6.66342 26 8.54739 26 12.3096V14.1494L25.998 15.4746C25.982 18.3736 25.8527 19.9466 24.8232 21.0068L24.7109 21.1172C23.528 22.2204 21.6771 22.2733 18.0859 22.374C16.3309 22.4247 14.5366 22.46 13 22.46L11.8047 22.4541C10.5701 22.4419 9.2313 22.412 7.91406 22.374C4.32406 22.2733 2.47207 22.2216 1.28906 21.1172L1.17676 21.0068C0.147351 19.9467 0.0180407 18.3728 0.00195312 15.4756L0 14.1504V12.3096C2.60311e-10 8.6641 7.84397e-05 6.78366 1.06934 5.56934L1.17676 5.45312C2.20737 4.39318 3.75557 4.22107 6.60938 4.12402L7.91406 4.08496C9.66906 4.03556 11.4634 4 13 4L14.1953 4.00586ZM13 5.0498C12.2388 5.0498 11.4124 5.05838 10.5576 5.07324L7.94434 5.13379C6.06133 5.18729 4.75553 5.22642 3.76855 5.38965C2.93523 5.52746 2.43887 5.73863 2.07715 6.04688L1.92969 6.18555C1.55854 6.56735 1.31861 7.09065 1.1875 8.06445C1.0521 9.07044 1.0498 10.3985 1.0498 12.3096V14.1504C1.0498 16.0607 1.05211 17.3885 1.1875 18.3945C1.3185 19.3675 1.55771 19.8919 1.92871 20.2744H1.92969C2.30383 20.6593 2.81602 20.9119 3.76855 21.0693C4.50868 21.1916 5.428 21.2443 6.63574 21.2852L7.94434 21.3242L10.5586 21.3867C11.4133 21.4017 12.2394 21.4102 13 21.4102C14.5226 21.4102 16.3059 21.3748 18.0557 21.3242H18.0566L19.3643 21.2852C20.5721 21.2442 21.4915 21.1917 22.2314 21.0693C23.1838 20.9118 23.697 20.6591 24.0713 20.2744C24.4423 19.8919 24.6815 19.3682 24.8125 18.3955C24.9479 17.3895 24.9502 16.0611 24.9502 14.1494V12.3096C24.9502 10.399 24.9481 9.07057 24.8125 8.06445C24.6812 7.09073 24.4408 6.56729 24.0693 6.18555V6.18457C23.696 5.80007 23.1838 5.5472 22.2314 5.38965C21.4914 5.26725 20.5719 5.21508 19.3643 5.17383L18.0557 5.13379C16.3041 5.08453 14.5212 5.0498 13 5.0498ZM10.001 11.1465C10.0013 10.175 10.9852 9.54311 11.8496 9.8916L12.0205 9.97461L15.666 12.0576C16.5725 12.5759 16.5724 13.884 15.666 14.4023L12.0205 16.4854C11.1206 16.9994 10.001 16.349 10.001 15.3125V11.1465ZM11.5 10.8867C11.3001 10.7725 11.0511 10.9164 11.0508 11.1465V15.3125C11.0508 15.514 11.2413 15.6502 11.4229 15.6045L11.5 15.5732L14.7021 13.7422L15.1445 13.4902C15.3204 13.3894 15.3428 13.1548 15.2109 13.0205L15.1445 12.9697L11.5 10.8867Z" fill="currentColor"/>
</svg>
