<svg width="100%" height="100%" viewBox="0 0 26 26" fill="none" xmlns="http://www.w3.org/2000/svg">
<path d="M15.8949 14.3C17.7582 14.3 19.2749 12.7839 19.2749 10.92C19.2749 9.05621 17.7582 7.54004 15.8949 7.54004C14.0315 7.54004 12.5149 9.05621 12.5149 10.92C12.5149 12.7839 14.0315 14.3 15.8949 14.3ZM15.8949 8.50575C17.2261 8.50575 18.3092 9.5888 18.3092 10.92C18.3092 12.2513 17.2261 13.3343 15.8949 13.3343C14.5637 13.3343 13.4806 12.2513 13.4806 10.92C13.4806 9.5888 14.5637 8.50575 15.8949 8.50575Z" fill="currenColor"/>
<path d="M24.5885 7.53996H21.178C20.0607 5.80023 18.1134 4.64282 15.897 4.64282C13.6802 4.64282 11.7329 5.80023 10.616 7.53996H1.41132C1.14479 7.53996 0.928467 7.75628 0.928467 8.02282V19.6114C0.928467 19.8784 1.14479 20.0942 1.41132 20.0942H4.79132V20.5771C4.79132 20.8441 5.00764 21.06 5.27418 21.06C5.54072 21.06 5.75704 20.8441 5.75704 20.5771V20.0942H20.2428V20.5771C20.2428 20.8441 20.4586 21.06 20.7256 21.06C20.9926 21.06 21.2085 20.8441 21.2085 20.5771V20.0942H24.5885C24.8555 20.0942 25.0713 19.8784 25.0713 19.6114V8.02282C25.0713 7.75628 24.8555 7.53996 24.5885 7.53996ZM15.897 5.60854C18.8256 5.60854 21.2085 7.99144 21.2085 10.92C21.2085 13.8485 18.8256 16.2314 15.897 16.2314C12.9685 16.2314 10.5856 13.8485 10.5856 10.92C10.5856 7.99144 12.9685 5.60854 15.897 5.60854ZM24.1056 19.1285H1.89418V17.1971H5.27418C5.54072 17.1971 5.75704 16.9813 5.75704 16.7142C5.75704 16.4472 5.54072 16.2314 5.27418 16.2314H1.89418V14.3H5.27418C5.54072 14.3 5.75704 14.0841 5.75704 13.8171C5.75704 13.5501 5.54072 13.3342 5.27418 13.3342H1.89418V11.4028H5.27418C5.54072 11.4028 5.75704 11.1865 5.75704 10.92C5.75704 10.6534 5.54072 10.4371 5.27418 10.4371H1.89418V8.50568H10.1042C9.79276 9.24928 9.61989 10.0648 9.61989 10.92C9.61989 14.3811 12.4359 17.1971 15.897 17.1971C19.3582 17.1971 22.1742 14.3811 22.1742 10.92C22.1742 10.0648 22.0013 9.24928 21.6899 8.50568H24.1056V19.1285Z" fill="#currenColor"/>
</svg>
