<svg width="100%" height="100%" viewBox="0 0 26 26" fill="none" xmlns="http://www.w3.org/2000/svg">
<path d="M15.3636 10.3831H24.8182C25.4709 10.3831 26 10.9122 26 11.5649V24.171C26 24.8237 25.4709 25.3528 24.8182 25.3528H15.3636C14.7109 25.3528 14.1818 24.8237 14.1818 24.171V11.5649C14.1818 10.9122 14.7109 10.3831 15.3636 10.3831ZM15.3636 11.171C15.1461 11.171 14.9697 11.3474 14.9697 11.5649V24.171C14.9697 24.3885 15.1461 24.5649 15.3636 24.5649H24.8182C25.0357 24.5649 25.2121 24.3885 25.2121 24.171V11.5649C25.2121 11.3474 25.0357 11.171 24.8182 11.171H15.3636ZM10.2424 22.5558V24.9589C10.2424 25.1764 10.0661 25.3528 9.84849 25.3528H1.9697C1.75213 25.3528 1.57576 25.1764 1.57576 24.9589V22.5558C0.676693 22.3733 0 21.5784 0 20.6255V2.89826C0 1.81042 0.881863 0.928558 1.9697 0.928558H9.84849C10.9363 0.928558 11.8182 1.81042 11.8182 2.89826V20.6255C11.8182 21.5784 11.1415 22.3733 10.2424 22.5558ZM1.9697 1.71644C1.317 1.71644 0.787879 2.24556 0.787879 2.89826V20.6255C0.787879 21.2782 1.317 21.8073 1.9697 21.8073H9.84849C10.5012 21.8073 11.0303 21.2782 11.0303 20.6255V2.89826C11.0303 2.24556 10.5012 1.71644 9.84849 1.71644H1.9697ZM2.36364 22.5952V24.5649H9.45455V22.5952H2.36364ZM5.90909 10.777C4.16856 10.777 2.75758 9.36606 2.75758 7.62553C2.75758 5.88499 4.16856 4.47401 5.90909 4.47401C7.64962 4.47401 9.06061 5.88499 9.06061 7.62553C9.06061 9.36606 7.64962 10.777 5.90909 10.777ZM5.90909 9.98916C7.21449 9.98916 8.27273 8.93093 8.27273 7.62553C8.27273 6.32013 7.21449 5.26189 5.90909 5.26189C4.60369 5.26189 3.54545 6.32013 3.54545 7.62553C3.54545 8.93093 4.60369 9.98916 5.90909 9.98916ZM5.90909 19.0498C4.16856 19.0498 2.75758 17.6388 2.75758 15.8983C2.75758 14.1577 4.16856 12.7467 5.90909 12.7467C7.64962 12.7467 9.06061 14.1577 9.06061 15.8983C9.06061 17.6388 7.64962 19.0498 5.90909 19.0498ZM5.90909 18.2619C7.21449 18.2619 8.27273 17.2037 8.27273 15.8983C8.27273 14.5929 7.21449 13.5346 5.90909 13.5346C4.60369 13.5346 3.54545 14.5929 3.54545 15.8983C3.54545 17.2037 4.60369 18.2619 5.90909 18.2619ZM20.0909 19.4437C18.3504 19.4437 16.9394 18.0327 16.9394 16.2922C16.9394 14.5517 18.3504 13.1407 20.0909 13.1407C21.8314 13.1407 23.2424 14.5517 23.2424 16.2922C23.2424 18.0327 21.8314 19.4437 20.0909 19.4437ZM20.0909 18.6558C21.3963 18.6558 22.4545 17.5976 22.4545 16.2922C22.4545 14.9868 21.3963 13.9286 20.0909 13.9286C18.7855 13.9286 17.7273 14.9868 17.7273 16.2922C17.7273 17.5976 18.7855 18.6558 20.0909 18.6558ZM21.2727 21.4134C21.4903 21.4134 21.6667 21.5898 21.6667 21.8073C21.6667 22.0249 21.4903 22.2013 21.2727 22.2013H18.9091C18.6915 22.2013 18.5152 22.0249 18.5152 21.8073C18.5152 21.5898 18.6915 21.4134 18.9091 21.4134H21.2727ZM5.90909 8.80735C5.25639 8.80735 4.72727 8.27823 4.72727 7.62553C4.72727 6.97283 5.25639 6.44371 5.90909 6.44371C6.56179 6.44371 7.09091 6.97283 7.09091 7.62553C7.09091 8.27823 6.56179 8.80735 5.90909 8.80735ZM5.90909 8.01947C6.12666 8.01947 6.30303 7.84309 6.30303 7.62553C6.30303 7.40796 6.12666 7.23159 5.90909 7.23159C5.69152 7.23159 5.51515 7.40796 5.51515 7.62553C5.51515 7.84309 5.69152 8.01947 5.90909 8.01947ZM5.90909 17.0801C5.25639 17.0801 4.72727 16.551 4.72727 15.8983C4.72727 15.2456 5.25639 14.7164 5.90909 14.7164C6.56179 14.7164 7.09091 15.2456 7.09091 15.8983C7.09091 16.551 6.56179 17.0801 5.90909 17.0801ZM5.90909 16.2922C6.12666 16.2922 6.30303 16.1158 6.30303 15.8983C6.30303 15.6807 6.12666 15.5043 5.90909 15.5043C5.69152 15.5043 5.51515 15.6807 5.51515 15.8983C5.51515 16.1158 5.69152 16.2922 5.90909 16.2922ZM20.0909 17.474C19.4382 17.474 18.9091 16.9449 18.9091 16.2922C18.9091 15.6395 19.4382 15.1104 20.0909 15.1104C20.7436 15.1104 21.2727 15.6395 21.2727 16.2922C21.2727 16.9449 20.7436 17.474 20.0909 17.474ZM20.0909 16.6861C20.3085 16.6861 20.4848 16.5098 20.4848 16.2922C20.4848 16.0746 20.3085 15.8983 20.0909 15.8983C19.8733 15.8983 19.697 16.0746 19.697 16.2922C19.697 16.5098 19.8733 16.6861 20.0909 16.6861Z" fill="currentColor"/>
</svg>
