<svg width="100%" height="100%" viewBox="0 0 26 26" fill="none" xmlns="http://www.w3.org/2000/svg">
<path d="M1.38409 5.00005C1.28223 5.00006 1.18454 5.04054 1.11251 5.11256C1.04048 5.18459 1.00001 5.28228 1 5.38415V20.7323C1.00001 20.8342 1.04048 20.9318 1.11251 21.0039C1.18454 21.0759 1.28223 21.1164 1.38409 21.1164H4.35493C4.4059 21.1172 4.45653 21.1079 4.50386 21.089C4.55119 21.07 4.59427 21.0419 4.63061 21.0061C4.66695 20.9704 4.69581 20.9278 4.71551 20.8807C4.73521 20.8337 4.74535 20.7833 4.74535 20.7323C4.74535 20.6813 4.73521 20.6309 4.71551 20.5838C4.69581 20.5368 4.66695 20.4942 4.63061 20.4585C4.59427 20.4227 4.55119 20.3945 4.50386 20.3756C4.45653 20.3567 4.4059 20.3474 4.35493 20.3482H1.76819V5.76824H4.35493C4.4059 5.76907 4.45653 5.75975 4.50386 5.74082C4.55119 5.72189 4.59427 5.69374 4.63061 5.65799C4.66695 5.62224 4.69581 5.57961 4.71551 5.5326C4.73521 5.48559 4.74535 5.43512 4.74535 5.38415C4.74535 5.33317 4.73521 5.28271 4.71551 5.23569C4.69581 5.18868 4.66695 5.14605 4.63061 5.1103C4.59427 5.07456 4.55119 5.0464 4.50386 5.02747C4.45653 5.00854 4.4059 4.99922 4.35493 5.00005H1.38409ZM21.6456 5.00005C21.5946 4.99922 21.544 5.00854 21.4967 5.02747C21.4493 5.0464 21.4062 5.07456 21.3699 5.1103C21.3336 5.14605 21.3047 5.18868 21.285 5.23569C21.2653 5.28271 21.2552 5.33317 21.2552 5.38415C21.2552 5.43512 21.2653 5.48559 21.285 5.5326C21.3047 5.57961 21.3336 5.62224 21.3699 5.65799C21.4062 5.69374 21.4493 5.72189 21.4967 5.74082C21.544 5.75975 21.5946 5.76907 21.6456 5.76824H24.2318V20.3482H21.6456C21.5946 20.3474 21.544 20.3567 21.4967 20.3756C21.4493 20.3945 21.4062 20.4227 21.3699 20.4585C21.3336 20.4942 21.3047 20.5368 21.285 20.5838C21.2653 20.6309 21.2552 20.6813 21.2552 20.7323C21.2552 20.7833 21.2653 20.8337 21.285 20.8807C21.3047 20.9278 21.3336 20.9704 21.3699 21.0061C21.4062 21.0419 21.4493 21.07 21.4967 21.089C21.544 21.1079 21.5946 21.1172 21.6456 21.1164H24.6159C24.7178 21.1164 24.8155 21.0759 24.8875 21.0039C24.9595 20.9318 25 20.8342 25 20.7323V5.38415C25 5.28228 24.9595 5.18459 24.8875 5.11256C24.8155 5.04054 24.7178 5.00006 24.6159 5.00005H21.6456ZM19.8096 6.66246C19.71 6.66805 19.6165 6.71216 19.5489 6.78547C19.4812 6.85878 19.4447 6.95553 19.4471 7.05526C19.4495 7.15499 19.4906 7.24987 19.5617 7.31984C19.6328 7.3898 19.7284 7.42936 19.8281 7.43014L21.2435 7.46715L3.89317 17.9982L4.39879 16.7109C4.42312 16.6514 4.43211 16.5867 4.42493 16.5228C4.41774 16.4588 4.39463 16.3977 4.35769 16.3451C4.32076 16.2924 4.27119 16.2499 4.21353 16.2213C4.15587 16.1928 4.09198 16.1792 4.0277 16.1818C3.95227 16.1848 3.8794 16.21 3.8182 16.2542C3.75701 16.2985 3.71019 16.3597 3.68361 16.4304L2.72237 18.88C2.66657 18.9564 2.64092 19.0507 2.65033 19.1448C2.65974 19.2389 2.70356 19.3263 2.77338 19.3901C2.82132 19.4369 2.88115 19.4708 2.94598 19.4875C3.01081 19.5043 3.0789 19.5038 3.14349 19.4861L5.78221 19.3836C5.88302 19.3816 5.979 19.3401 6.04945 19.2679C6.1199 19.1958 6.15916 19.0989 6.15877 18.998C6.15837 18.8972 6.11835 18.8006 6.04734 18.729C5.97634 18.6574 5.88003 18.6166 5.77921 18.6154C5.77021 18.6153 5.7612 18.6154 5.75221 18.6159L4.26184 18.6739L21.671 8.10621L21.0549 9.41853C21.0116 9.51078 21.0067 9.61646 21.0413 9.71232C21.0759 9.80817 21.1472 9.88635 21.2394 9.92966C21.3317 9.97297 21.4374 9.97785 21.5332 9.94324C21.6291 9.90864 21.7073 9.83737 21.7506 9.74511L22.8889 7.32002C22.9382 7.2424 22.9581 7.14964 22.9449 7.05859C22.9317 6.96755 22.8863 6.88427 22.8168 6.8239C22.8074 6.81558 22.797 6.80724 22.7868 6.79989C22.7845 6.79837 22.7817 6.79637 22.7793 6.79489C22.7181 6.75297 22.646 6.72969 22.5718 6.72787C22.5522 6.72755 22.5326 6.72872 22.5133 6.73138L19.8482 6.66236C19.8353 6.66171 19.8225 6.66182 19.8096 6.66246Z" fill="currentColor"/>
</svg>
