<svg width="100%" height="100%" viewBox="0 0 26 26" fill="none" xmlns="http://www.w3.org/2000/svg">
<path d="M20.463 3.25H5.53712C3.6786 3.25 2.16675 4.76185 2.16675 6.62037V17.6944C2.16675 19.553 3.6786 21.0648 5.53712 21.0648H8.14675L5.89582 23.6359C5.72249 23.8357 5.74175 24.1415 5.94156 24.3148C6.03304 24.3967 6.14619 24.4352 6.25934 24.4352C6.39416 24.4352 6.52656 24.3798 6.62286 24.2715L9.42749 21.0648H16.5727L19.3797 24.2715C19.4736 24.3798 19.606 24.4352 19.7408 24.4352C19.854 24.4352 19.9671 24.3967 20.0586 24.3148C20.2584 24.1415 20.2777 23.8357 20.1019 23.6359L17.8534 21.0648H20.463C22.3216 21.0648 23.8334 19.553 23.8334 17.6944V6.62037C23.8334 4.76185 22.3216 3.25 20.463 3.25ZM22.8705 17.6944C22.8705 19.0209 21.7895 20.1019 20.463 20.1019H5.53712C4.21064 20.1019 3.12971 19.0209 3.12971 17.6944V6.62037C3.12971 5.29389 4.21064 4.21296 5.53712 4.21296H20.463C21.7895 4.21296 22.8705 5.29389 22.8705 6.62037V17.6944ZM16.6256 11.3317L11.8084 8.44278C11.5075 8.26222 11.1464 8.25741 10.8406 8.43074C10.5325 8.60407 10.3519 8.91704 10.3519 9.26852V15.0463C10.3519 15.3978 10.5325 15.7107 10.8382 15.8841C10.9899 15.9683 11.1512 16.0093 11.3149 16.0093C11.4858 16.0093 11.6543 15.9635 11.8084 15.872L16.6256 12.9831C16.9193 12.8074 17.0927 12.4993 17.0927 12.1574C17.0927 11.8156 16.9193 11.5074 16.6256 11.3317ZM11.3149 15.0463V9.26852L16.1297 12.1574L11.3149 15.0463Z" fill="currentColor"/>
</svg>
